<?xml version="1.0" standalone="no"?>
<!DOCTYPE svg PUBLIC "-//W3C//DTD SVG 20010904//EN"
 "http://www.w3.org/TR/2001/REC-SVG-20010904/DTD/svg10.dtd">
<svg version="1.0" xmlns="http://www.w3.org/2000/svg"
 width="600.000000pt" height="600.000000pt" viewBox="0 0 600.000000 600.000000"
 preserveAspectRatio="xMidYMid meet">
<metadata>
Created by potrace 1.11, written by Peter Selinger 2001-2013
</metadata>
<g transform="translate(0.000000,600.000000) scale(0.100000,-0.100000)"
fill="#000000" stroke="none">
<path d="M0 3000 l0 -3000 3000 0 3000 0 0 3000 0 3000 -3000 0 -3000 0 0
-3000z m3095 1678 c50 -67 101 -136 114 -154 l23 -32 -75 -100 -76 -99 87 -21
c222 -55 390 -188 493 -392 l46 -91 172 -2 c94 -1 171 0 171 2 0 2 -18 28 -40
58 l-41 53 81 107 c45 60 84 109 88 110 4 1 44 -47 89 -107 l81 -109 -44 -59
-44 -60 2 -169 3 -168 208 -3 207 -2 0 -712 0 -711 -22 -36 c-12 -20 -49 -73
-82 -119 l-61 -83 -3 175 -2 176 -125 0 -125 0 0 -303 0 -303 -70 -52 c-39
-29 -76 -55 -83 -58 -9 -3 -12 79 -12 353 l0 358 -167 3 -168 2 -2 -452 -3
-453 -75 -27 c-41 -15 -77 -27 -80 -27 -3 -1 -5 572 -5 1272 l0 1274 -42 84
c-54 107 -104 165 -199 228 -230 154 -522 124 -720 -74 -53 -53 -82 -93 -110
-151 l-39 -79 -5 -1277 -5 -1277 -78 27 -78 27 1 453 0 452 -170 0 -170 0 -2
-361 -3 -361 -78 58 -79 59 -1 300 -2 300 -127 3 -128 3 0 -173 0 -173 -21 25
c-11 14 -47 64 -80 112 l-60 88 -2 715 -2 715 210 2 210 3 3 166 2 166 -45 62
-45 61 82 110 c45 61 84 110 87 110 9 -1 161 -209 161 -220 0 -6 -16 -32 -35
-57 -19 -25 -35 -50 -35 -54 0 -5 76 -9 170 -9 l169 0 39 83 c73 153 179 267
322 341 70 37 180 76 214 76 53 1 50 15 -24 114 l-73 97 24 33 c81 112 205
275 209 275 3 0 46 -54 95 -121z m45 -1408 c66 -34 98 -60 134 -110 67 -92 66
-88 69 -583 l2 -447 -347 0 -348 0 0 429 c0 485 3 508 78 606 37 49 119 107
177 125 54 17 185 6 235 -20z"/>
<path d="M1942 3533 l3 -88 165 0 165 0 0 85 0 85 -168 3 -168 2 3 -87z"/>
<path d="M3722 3533 l3 -88 165 0 165 0 0 85 0 85 -168 3 -168 2 3 -87z"/>
<path d="M1520 2790 l0 -490 130 0 130 0 -2 488 -3 487 -127 3 -128 3 0 -491z"/>
<path d="M1940 2790 l0 -490 170 0 170 0 -2 488 -3 487 -167 3 -168 2 0 -490z"/>
<path d="M3720 2790 l0 -490 170 0 170 0 -2 488 -3 487 -167 3 -168 2 0 -490z"/>
<path d="M4220 2790 l0 -490 123 0 124 0 7 480 c4 264 4 484 1 490 -4 6 -58
10 -131 10 l-124 0 0 -490z"/>
<path d="M2940 3124 c-45 -20 -77 -50 -101 -96 -18 -34 -19 -63 -19 -383 l0
-345 180 0 180 0 0 343 c0 311 -2 346 -19 382 -22 48 -54 79 -103 100 -46 19
-73 19 -118 -1z"/>
</g>
</svg>
