<?xml version="1.0" standalone="no"?>
<!DOCTYPE svg PUBLIC "-//W3C//DTD SVG 20010904//EN"
 "http://www.w3.org/TR/2001/REC-SVG-20010904/DTD/svg10.dtd">
<svg version="1.0" xmlns="http://www.w3.org/2000/svg"
 width="600.000000pt" height="600.000000pt" viewBox="0 0 600.000000 600.000000"
 preserveAspectRatio="xMidYMid meet">
<metadata>
Created by potrace 1.11, written by Peter Selinger 2001-2013
</metadata>
<g transform="translate(0.000000,600.000000) scale(0.100000,-0.100000)"
fill="#000000" stroke="none">
<path d="M0 3000 l0 -3000 3000 0 3000 0 0 3000 0 3000 -3000 0 -3000 0 0
-3000z m3230 1899 c410 -50 787 -227 1082 -507 305 -291 498 -649 575 -1072
28 -150 25 -506 -5 -663 -49 -257 -177 -565 -320 -767 -79 -111 -305 -343
-412 -422 -89 -65 -242 -156 -337 -200 -37 -17 -92 -42 -121 -55 -76 -35 -304
-90 -446 -109 -160 -21 -458 -14 -596 15 -121 24 -276 66 -332 88 -73 29 -257
122 -314 158 -30 19 -57 35 -61 35 -4 0 -44 28 -90 63 -107 80 -341 319 -416
424 -80 113 -197 345 -247 488 -213 619 -91 1320 317 1825 72 89 243 257 330
323 247 189 574 326 886 371 113 17 393 20 507 5z"/>
</g>
</svg>
