<?xml version="1.0" standalone="no"?>
<!DOCTYPE svg PUBLIC "-//W3C//DTD SVG 20010904//EN"
 "http://www.w3.org/TR/2001/REC-SVG-20010904/DTD/svg10.dtd">
<svg version="1.0" xmlns="http://www.w3.org/2000/svg"
 width="1536.000000pt" height="1536.000000pt" viewBox="0 0 1536.000000 1536.000000"
 preserveAspectRatio="xMidYMid meet">
<metadata>
Created by potrace 1.11, written by Peter Selinger 2001-2013
</metadata>
<g transform="translate(0.000000,1536.000000) scale(0.100000,-0.100000)"
fill="#000000" stroke="none">
<path d="M0 7680 l0 -7680 7680 0 7680 0 0 7680 0 7680 -7680 0 -7680 0 0
-7680z m8041 4890 c500 -39 989 -151 1454 -335 158 -62 530 -245 675 -332
1023 -613 1777 -1543 2152 -2653 515 -1529 244 -3223 -722 -4515 -278 -371
-711 -791 -1107 -1073 -191 -136 -609 -369 -838 -467 -60 -26 -114 -51 -120
-55 -25 -18 -384 -146 -435 -155 -14 -3 -102 -25 -197 -50 -595 -155 -1236
-195 -1863 -114 -242 31 -554 97 -830 175 -87 25 -340 119 -411 152 -35 17
-125 58 -199 92 -149 68 -321 160 -480 258 -58 35 -121 73 -140 84 -78 45
-354 248 -421 310 -20 18 -67 60 -105 93 -153 133 -315 297 -543 550 -137 153
-363 478 -486 700 -182 329 -291 573 -396 886 -180 538 -262 1066 -253 1636
19 1268 512 2448 1399 3352 738 752 1652 1230 2688 1406 131 22 372 51 492 58
126 8 564 6 686 -3z"/>
</g>
</svg>
